# xmcd
#
# Track frame offsets: 
#        187
#        19712
#        35456
#        55036
#        69774
#        84004
#        101593
#        115322
#        136273
#        156270
#        170085
#        183569
#
# Disc length: 2682 seconds
#
# Revision: 1
# Processed by: cddbd v1.5.2PL0 Copyright (c) Steve Scherf et al.
# Submitted via: ExactAudioCopy v0.99pb5
#
DISCID=920a780c
DTITLE=Duke Ellington - Lotus Blossom. In Memory Billy StrayHorn
DYEAR=1967
DGENRE=Big Band
TTITLE0=Snibor
TTITLE1=Boo-dah
TTITLE2=Blood count
TTITLE3=U.M.M.G.
TTITLE4=Charpoy
TTITLE5=After all
TTITLE6=The intimacy of the blues
TTITLE7=Rain check
TTITLE8=Day-dream
TTITLE9=Rock skipinn at the blue note
TTITLE10=All day long
TTITLE11=Lotus blossom
EXTD=YEAR: 1967
EXTT0=
EXTT1=
EXTT2=
EXTT3=
EXTT4=
EXTT5=
EXTT6=
EXTT7=
EXTT8=
EXTT9=
EXTT10=
EXTT11=
PLAYORDER=
